<?xml version="1.0" standalone="no"?><!DOCTYPE svg PUBLIC "-//W3C//DTD SVG 1.1//EN" "http://www.w3.org/Graphics/SVG/1.1/DTD/svg11.dtd"><svg t="1534906731321" class="icon" style="" viewBox="0 0 1080 1024" version="1.1" xmlns="http://www.w3.org/2000/svg" p-id="7387" xmlns:xlink="http://www.w3.org/1999/xlink" width="210.9375" height="200"><defs><style type="text/css"></style></defs><path d="M408.203955 748.938061v-31.288715a412.15771 412.15771 0 0 1 2.559985-63.430758c-7.9644-3.128872-15.9288-6.542186-23.8932-9.955501A320.567108 320.567108 0 0 1 310.071166 597.330015a358.398009 358.398009 0 0 1-31.8576-28.444287 369.775723 369.775723 0 0 1-40.106444-48.924172 360.673552 360.673552 0 0 1-45.226416-89.883945 307.767179 307.767179 0 0 0-192.852262 284.442864v2.559986a273.918478 273.918478 0 0 0 6.257743 62.292987 299.518336 299.518336 0 0 0 369.775724 234.949806 242.060877 242.060877 0 0 0 118.612674-59.733002v-1.706657a349.011394 349.011394 0 0 1-86.47063-203.945534zM426.692741 593.347815a369.775723 369.775723 0 0 1 349.58028-246.043078 362.664652 362.664652 0 0 1 63.430759 6.542186 265.100749 265.100749 0 0 0 5.688857-55.181916A304.069422 304.069422 0 0 0 557.536458 0H517.145572a298.94945 298.94945 0 0 0-56.888573 10.239943L455.137027 11.9466l-8.817729 2.844429-9.386614 3.128871h-1.9911a300.656107 300.656107 0 0 0-188.870062 205.083306 309.189393 309.189393 0 0 0-10.239943 79.928444v2.844429A305.207193 305.207193 0 0 0 426.692741 593.347815z" p-id="7388"></path><path d="M776.841907 410.16661A306.629408 306.629408 0 0 0 772.290821 1023.994311a306.629408 306.629408 0 0 0 3.697757-613.543258z" p-id="7389"></path></svg>