<?xml version="1.0" standalone="no"?><!DOCTYPE svg PUBLIC "-//W3C//DTD SVG 1.1//EN" "http://www.w3.org/Graphics/SVG/1.1/DTD/svg11.dtd"><svg t="1545029404878" class="icon" style="" viewBox="0 0 1024 1024" version="1.1" xmlns="http://www.w3.org/2000/svg" p-id="3384" xmlns:xlink="http://www.w3.org/1999/xlink" width="200" height="200"><defs><style type="text/css"></style></defs><path d="M919.84384 210.41664H241.17248L229.40672 113.3568c-1.92-15.83616-16.5376-28.79488-32.49664-28.79488H190.464c-2.72384 0-5.30944 0.384-7.7312 1.09056H99.77344c-19.14368 0-34.81088 14.3616-34.81088 31.90784s15.6672 31.90784 34.816 31.90784H169.3184L235.7248 697.344c1.92 15.84128 16.54272 28.8 32.49664 28.8h6.4512c2.69312 0 5.25824-0.37888 7.6544-1.07008h548.82304c19.14368 0 34.80576-14.35648 34.80576-31.90784 0-17.55136-15.66208-31.90784-34.80576-31.90784H295.81824l-8.13056-67.11296h545.1776c15.95392 0 31.89248-12.72832 35.42016-28.288l74.15296-327.14752c3.52768-15.55456-6.64064-28.288-22.59456-28.288zM294.58944 865.72032c0 42.8032 34.70336 77.51168 77.51168 77.51168s77.50656-34.70336 77.50656-77.5168c0-42.8032-34.69824-77.50656-77.50656-77.50656s-77.5168 34.70336-77.5168 77.51168z m384.23552 0c0 42.8032 34.70336 77.51168 77.5168 77.51168s77.50656-34.70336 77.50656-77.5168c0-42.8032-34.70336-77.50656-77.51168-77.50656-42.8032 0-77.51168 34.70336-77.51168 77.51168z" p-id="3385"></path></svg>