<?xml version="1.0" standalone="no"?><!DOCTYPE svg PUBLIC "-//W3C//DTD SVG 1.1//EN" "http://www.w3.org/Graphics/SVG/1.1/DTD/svg11.dtd"><svg t="1534906549384" class="icon" style="" viewBox="0 0 1024 1024" version="1.1" xmlns="http://www.w3.org/2000/svg" p-id="6506" xmlns:xlink="http://www.w3.org/1999/xlink" width="200" height="200"><defs><style type="text/css"></style></defs><path d="M362.66666666 85.33333333L234.66666666 85.33333333C164.26666666 85.33333333 106.66666666 142.93333333 106.66666666 213.33333333l0 128c0 70.4 57.6 128 128 128l128 0c70.4 0 128-57.6 128-128L490.66666666 213.33333333C490.66666666 142.93333333 433.06666666 85.33333333 362.66666666 85.33333333zM810.66666666 85.33333333l-128 0C612.26666666 85.33333333 554.66666666 142.93333333 554.66666666 213.33333333l0 128c0 70.4 57.6 128 128 128l128 0c70.4 0 128-57.6 128-128L938.66666666 213.33333333C938.66666666 142.93333333 881.06666666 85.33333333 810.66666666 85.33333333zM362.66666666 533.33333333L234.66666666 533.33333333c-70.4 0-128 57.6-128 128l0 128c0 70.4 57.6 128 128 128l128 0c70.4 0 128-57.6 128-128l0-128C490.66666666 590.93333333 433.06666666 533.33333333 362.66666666 533.33333333zM810.66666666 533.33333333l-128 0c-70.4 0-128 57.6-128 128l0 128c0 70.4 57.6 128 128 128l128 0c70.4 0 128-57.6 128-128l0-128C938.66666666 590.93333333 881.06666666 533.33333333 810.66666666 533.33333333z" p-id="6507"></path></svg>